<svg xmlns="http://www.w3.org/2000/svg" viewBox="0 0 193.96 116.01"><defs><style>.cls-1,.cls-4{fill:none;stroke:#50cefb;}.cls-1{stroke-miterlimit:10;stroke-width:2.13px;}.cls-2,.cls-5{fill:#50cefb;}.cls-3{fill:#fff;}.cls-4{stroke-linecap:round;stroke-linejoin:round;stroke-width:1px;stroke-dasharray:2.83;}.cls-4,.cls-5{opacity:0.75;}</style></defs><title>Asset 210</title><g id="Layer_2" data-name="Layer 2"><g id="Layer_1-2" data-name="Layer 1"><path class="cls-1" d="M31.52,53.25"/><path class="cls-2" d="M30.52,54.31H27.11V48.87c0-6.42,7.72-11.6,14.11-11.6A16.37,16.37,0,0,1,52,41.77L50.48,43.3a14.14,14.14,0,0,0-9.27-3.89c-5.39,0-12,4.37-12,9.47v3.31h1.29Z"/><path class="cls-2" d="M41.21,35.41a11.6,11.6,0,1,1,11.6-11.6A11.61,11.61,0,0,1,41.21,35.41Zm0-21.07a9.47,9.47,0,1,0,9.47,9.47A9.48,9.48,0,0,0,41.21,14.34Z"/><path class="cls-2" d="M146.46,37.07h-2.13c0-5.1-6.59-9.47-12-9.47a13.69,13.69,0,0,0-10.92,5.92l-1.81-1.11c2.41-4,7.89-6.94,12.73-6.94C138.75,25.47,146.46,30.64,146.46,37.07Z"/><path class="cls-2" d="M132.36,23.6A11.6,11.6,0,1,1,144,12,11.61,11.61,0,0,1,132.36,23.6Zm0-21.07A9.47,9.47,0,1,0,141.83,12,9.48,9.48,0,0,0,132.36,2.53Z"/><path class="cls-3" d="M146,99.56a31.36,31.36,0,0,1-17.33-5.19l.6-.9-.6.9c-.67-.44-1.33-.91-2-1.4l1.3-1.68c.58.45,1.19.89,1.82,1.3a29.43,29.43,0,1,0-2.4-47.33l-1.17,1-.51-1.42A39.42,39.42,0,0,0,49.5,53l-.17,1.33-1.26-.47a21.67,21.67,0,0,0-7.56-1.36A21.94,21.94,0,1,0,59.13,86.06l.71-1.13.95.94a39.36,39.36,0,0,0,40.68,9.42l.69,2a41.48,41.48,0,0,1-41.95-9A24.08,24.08,0,1,1,47.57,51.47a41.54,41.54,0,0,1,79.67-8.76A31.52,31.52,0,1,1,146,99.56Z"/><path class="cls-4" d="M40,40.13"/><path class="cls-5" d="M88.61,110.34a.51.51,0,0,1-.54-.5.48.48,0,0,1,.48-.5h0c1,0,1.88,0,2.79-.07a.5.5,0,1,1,.05,1C90.48,110.31,89.54,110.34,88.61,110.34Zm57.38,0q-.94,0-1.88,0a.5.5,0,0,1-.48-.52.47.47,0,0,1,.52-.48c.93,0,1.87.05,2.8,0a.49.49,0,0,1,.51.49.5.5,0,0,1-.49.51Zm-60.27-.08h0c-.94-.05-1.9-.14-2.85-.24a.5.5,0,0,1,.11-1c.93.11,1.87.19,2.8.24a.5.5,0,0,1,0,1Zm64.07-.09a.5.5,0,0,1,0-1c.93-.08,1.86-.2,2.78-.35a.5.5,0,0,1,.16,1c-.94.15-1.9.27-2.85.36Zm-8.49-.09h-.06c-.95-.11-1.9-.25-2.84-.42a.5.5,0,0,1,.18-1c.91.17,1.85.3,2.77.41a.5.5,0,0,1-.05,1Zm-47.09,0a.5.5,0,0,1-.05-1c.93-.1,1.86-.23,2.78-.38a.51.51,0,0,1,.58.41.5.5,0,0,1-.41.57c-.94.15-1.89.28-2.83.38Zm-14.12-.42H80c-.93-.16-1.87-.35-2.81-.56a.5.5,0,1,1,.22-1c.91.21,1.84.39,2.75.55a.5.5,0,0,1-.08,1Zm-39.56-.29a.5.5,0,0,1,0-1c.93,0,1.87,0,2.79-.11a.51.51,0,0,1,.54.46.5.5,0,0,1-.46.54c-.95.08-1.91.12-2.87.12Zm114.85,0a.5.5,0,0,1-.11-1c.9-.21,1.81-.45,2.7-.72a.5.5,0,0,1,.29,1c-.91.28-1.84.53-2.77.74ZM37.7,109.2h0c-1-.08-1.91-.2-2.85-.35a.5.5,0,0,1,.16-1c.91.15,1.85.27,2.77.34a.5.5,0,0,1,0,1Zm62.1-.08a.5.5,0,0,1-.11-1c.91-.2,1.82-.43,2.72-.68a.5.5,0,0,1,.27,1c-.92.26-1.85.49-2.78.69Zm35.93-.06-.12,0c-.92-.23-1.85-.5-2.75-.8a.5.5,0,0,1,.31-1c.89.29,1.79.55,2.69.78a.5.5,0,0,1-.12,1Zm-89.55-.2a.5.5,0,0,1-.08-1c.92-.15,1.84-.34,2.74-.57a.5.5,0,1,1,.24,1c-.92.23-1.87.43-2.82.58Zm28.39-.5-.14,0c-.91-.26-1.83-.55-2.73-.86a.5.5,0,0,1,.33-.95c.88.3,1.78.59,2.68.84a.5.5,0,0,1-.14,1Zm-42.45-.08-.12,0c-.93-.23-1.86-.51-2.76-.82a.5.5,0,1,1,.32-.95c.87.3,1.77.57,2.68.79a.5.5,0,0,1-.12,1Zm73.19-.44a.5.5,0,0,1,0-1l2.82-.29a.51.51,0,0,1,.55.45.5.5,0,0,1-.45.55l-2.82.29Zm55.49-.21a.5.5,0,0,1-.18-1c.87-.33,1.73-.69,2.58-1.08a.5.5,0,0,1,.42.91c-.87.4-1.75.77-2.64,1.11A.5.5,0,0,1,160.8,107.63Zm-109.13-.14a.5.5,0,0,1-.16-1c.88-.3,1.75-.64,2.6-1a.5.5,0,0,1,.4.92c-.87.38-1.78.73-2.68,1Zm78.67-.18a.5.5,0,0,1-.19,0c-.88-.36-1.77-.75-2.62-1.16a.5.5,0,1,1,.44-.9c.83.4,1.69.79,2.56,1.14a.5.5,0,0,1-.19,1Zm-19.39,0a.5.5,0,0,1,0-1l2.82-.29a.51.51,0,0,1,.55.45.5.5,0,0,1-.45.55l-2.82.29Zm5.64-.58a.5.5,0,0,1,0-1l2.82-.29a.51.51,0,0,1,.55.45.5.5,0,0,1-.45.55l-2.82.29Zm-47.38-.17a.5.5,0,0,1-.19,0c-.88-.36-1.76-.74-2.62-1.15a.5.5,0,1,1,.43-.91c.84.4,1.71.78,2.57,1.13a.5.5,0,0,1-.19,1Zm-42.45-.06a.5.5,0,0,1-.2,0c-.87-.38-1.74-.81-2.58-1.26a.5.5,0,1,1,.48-.88c.82.44,1.66.85,2.51,1.23a.5.5,0,0,1-.2,1Zm95.47-.34a.5.5,0,0,1,0-1l2.82-.29a.52.52,0,0,1,.55.45.5.5,0,0,1-.45.55l-2.82.29Zm43.71-.84a.5.5,0,0,1-.24-.94c.82-.44,1.63-.92,2.41-1.42a.5.5,0,1,1,.54.84c-.8.51-1.63,1-2.47,1.46A.5.5,0,0,1,165.94,105.26Zm-109.08,0a.5.5,0,0,1-.24-.94c.82-.44,1.62-.92,2.4-1.43a.5.5,0,0,1,.55.84c-.8.52-1.63,1-2.47,1.47A.49.49,0,0,1,56.86,105.21Zm7.22-1.12a.5.5,0,0,1-.24-.06c-.84-.45-1.68-.93-2.48-1.42a.5.5,0,0,1,.52-.85c.79.48,1.61,1,2.43,1.4a.5.5,0,0,1-.24.94Zm-42.3-.35a.5.5,0,0,1-.27-.08c-.8-.52-1.59-1.08-2.34-1.67a.5.5,0,0,1,.61-.79c.73.57,1.5,1.12,2.27,1.62a.5.5,0,0,1-.27.92Zm148.93-1.53a.5.5,0,0,1-.3-.9c.75-.55,1.49-1.13,2.2-1.73a.5.5,0,0,1,.65.76c-.73.62-1.49,1.21-2.25,1.78A.5.5,0,0,1,170.71,102.22Zm-153.4-1.95a.5.5,0,0,1-.34-.13c-.71-.65-1.39-1.33-2-2a.5.5,0,1,1,.73-.68c.63.68,1.29,1.34,2,2a.5.5,0,0,1-.34.87ZM175,98.57a.5.5,0,0,1-.35-.86c.67-.65,1.32-1.33,1.95-2a.5.5,0,1,1,.74.67c-.64.7-1.31,1.4-2,2.06A.5.5,0,0,1,175,98.57ZM13.46,96.11a.5.5,0,0,1-.39-.19c-.59-.75-1.15-1.54-1.68-2.33a.5.5,0,1,1,.84-.55c.51.77,1.06,1.54,1.63,2.27a.5.5,0,0,1-.39.81Zm165.37-1.75a.5.5,0,0,1-.39-.81c.57-.73,1.13-1.49,1.66-2.26a.5.5,0,0,1,.83.56c-.54.79-1.11,1.57-1.7,2.31A.5.5,0,0,1,178.83,94.36Zm-168.48-3a.5.5,0,0,1-.44-.26c-.46-.84-.89-1.71-1.27-2.58a.5.5,0,1,1,.91-.41c.37.84.79,1.68,1.24,2.5a.5.5,0,0,1-.2.68A.49.49,0,0,1,10.35,91.39ZM182,89.69a.5.5,0,0,1-.43-.75c.47-.8.92-1.63,1.34-2.46a.5.5,0,1,1,.89.45c-.43.86-.89,1.7-1.37,2.52A.5.5,0,0,1,182,89.69Zm-174-3.47a.5.5,0,0,1-.47-.34C7.27,85,7,84,6.76,83.13a.5.5,0,1,1,1-.25c.23.89.5,1.79.81,2.67a.5.5,0,0,1-.31.64Zm176.52-1.6a.5.5,0,0,1-.46-.69c.36-.85.69-1.74,1-2.62a.5.5,0,0,1,.95.32c-.31.91-.65,1.81-1,2.69A.5.5,0,0,1,184.57,84.62ZM6.65,80.73a.5.5,0,0,1-.49-.42c-.16-.95-.28-1.91-.36-2.85a.5.5,0,0,1,1-.08c.08.92.2,1.85.35,2.77a.5.5,0,0,1-.41.58ZM186.4,79.25l-.13,0a.5.5,0,0,1-.36-.61c.24-.89.45-1.81.63-2.73a.5.5,0,1,1,1,.19c-.18.94-.4,1.88-.64,2.79A.5.5,0,0,1,186.4,79.25ZM6.17,75.09a.5.5,0,0,1-.5-.5v-.12c0-.91,0-1.84.11-2.75a.51.51,0,0,1,.54-.46.5.5,0,0,1,.46.54c-.07.89-.11,1.79-.11,2.68v.12A.5.5,0,0,1,6.17,75.09Zm181.31-1.4h-.06a.5.5,0,0,1-.43-.56c.11-.91.2-1.85.25-2.79a.51.51,0,0,1,.53-.47.5.5,0,0,1,.47.53c-.05,1-.14,1.92-.26,2.86A.5.5,0,0,1,187.48,73.69ZM6.61,69.45H6.53a.5.5,0,0,1-.41-.57c.15-.94.35-1.89.58-2.82a.5.5,0,1,1,1,.24c-.22.9-.41,1.82-.56,2.73A.5.5,0,0,1,6.61,69.45ZM187.79,68a.5.5,0,0,1-.5-.49c0-.93-.05-1.87-.13-2.8a.5.5,0,0,1,1-.08c.08.95.12,1.91.13,2.86a.5.5,0,0,1-.49.51ZM8,64l-.16,0a.5.5,0,0,1-.31-.63c.31-.91.66-1.81,1-2.68a.5.5,0,0,1,.92.4c-.37.85-.71,1.72-1,2.6A.5.5,0,0,1,8,64Zm179.36-1.56a.5.5,0,0,1-.49-.43c-.14-.92-.3-1.85-.5-2.75a.5.5,0,0,1,1-.21c.2.93.38,1.88.51,2.82a.5.5,0,0,1-.42.57ZM10.24,58.76A.5.5,0,0,1,9.8,58c.45-.84.95-1.68,1.46-2.47a.5.5,0,0,1,.84.54c-.5.78-1,1.58-1.42,2.4A.5.5,0,0,1,10.24,58.76Zm175.89-1.9a.5.5,0,0,1-.48-.36c-.26-.9-.56-1.79-.87-2.66a.5.5,0,0,1,.94-.34c.33.89.63,1.81.9,2.72a.5.5,0,0,1-.34.62ZM13.32,54a.5.5,0,0,1-.4-.81c.58-.75,1.21-1.49,1.85-2.2a.5.5,0,1,1,.74.67c-.63.69-1.23,1.41-1.8,2.14A.5.5,0,0,1,13.32,54Zm170.86-2.46a.5.5,0,0,1-.46-.3c-.38-.84-.79-1.69-1.23-2.51a.5.5,0,0,1,.88-.47c.45.84.87,1.71,1.25,2.57a.5.5,0,0,1-.25.66A.49.49,0,0,1,184.19,51.55Zm-167-1.72A.5.5,0,0,1,16.8,49c.7-.65,1.43-1.28,2.18-1.87a.5.5,0,0,1,.62.79c-.73.57-1.44,1.19-2.12,1.82A.5.5,0,0,1,17.14,49.83Zm164.4-3.28a.5.5,0,0,1-.42-.24c-.5-.8-1-1.58-1.56-2.33a.5.5,0,1,1,.81-.58c.55.77,1.09,1.57,1.59,2.38a.5.5,0,0,1-.42.76ZM21.59,46.32a.5.5,0,0,1-.28-.92c.8-.53,1.62-1,2.46-1.49a.5.5,0,1,1,.48.88c-.81.45-1.62.93-2.39,1.45A.5.5,0,0,1,21.59,46.32Zm5-2.73a.5.5,0,0,1-.2-1c.87-.39,1.77-.75,2.67-1.06a.5.5,0,0,1,.33.94c-.87.31-1.75.65-2.59,1A.5.5,0,0,1,26.55,43.6Zm151.69-1.65a.5.5,0,0,1-.39-.18c-.59-.72-1.22-1.42-1.85-2.1a.5.5,0,1,1,.73-.69c.65.69,1.29,1.41,1.9,2.15a.5.5,0,0,1-.39.82Zm-3.89-4.12a.5.5,0,0,1-.34-.13c-.69-.63-1.4-1.25-2.12-1.83a.5.5,0,1,1,.63-.78c.74.59,1.47,1.23,2.17,1.87a.5.5,0,0,1-.34.87Zm-4.41-3.56a.5.5,0,0,1-.29-.09c-.76-.53-1.55-1-2.35-1.53a.5.5,0,0,1,.52-.86c.81.49,1.62,1,2.4,1.57a.5.5,0,0,1-.29.91Zm-4.85-2.93a.5.5,0,0,1-.23-.06c-.83-.43-1.68-.83-2.53-1.2a.5.5,0,0,1,.4-.92c.87.38,1.74.79,2.59,1.23a.5.5,0,0,1-.23.95Zm-5.2-2.25-.17,0c-.87-.31-1.77-.59-2.67-.84a.5.5,0,1,1,.27-1c.92.26,1.84.55,2.74.86a.5.5,0,0,1-.17,1Zm-5.46-1.52h-.1c-.91-.19-1.84-.35-2.76-.47a.5.5,0,1,1,.13-1c.94.13,1.9.29,2.83.48a.5.5,0,0,1-.1,1Zm-5.61-.76h0c-.93-.06-1.87-.09-2.8-.09a.5.5,0,0,1,0-1c1,0,1.92,0,2.87.1a.5.5,0,0,1,0,1Z"/><path class="cls-5" d="M120.68,17.79a.5.5,0,0,1-.31-.11l-.46-.36a.5.5,0,1,1,.61-.79l.47.37a.5.5,0,0,1-.31.89Zm-2.75-2a.49.49,0,0,1-.28-.09c-.77-.53-1.56-1-2.36-1.53a.5.5,0,0,1,.52-.85c.81.49,1.62,1,2.4,1.56a.5.5,0,0,1-.28.91Zm-4.84-2.95a.5.5,0,0,1-.24-.06c-.82-.44-1.67-.86-2.51-1.26a.5.5,0,1,1,.42-.91c.86.4,1.72.84,2.56,1.28a.5.5,0,0,1-.24.94ZM108,10.41a.5.5,0,0,1-.19,0c-.87-.35-1.75-.68-2.63-1a.5.5,0,1,1,.32-.95c.9.31,1.8.64,2.68,1a.5.5,0,0,1-.19,1ZM102.6,8.58l-.14,0c-.9-.25-1.81-.48-2.72-.68a.5.5,0,0,1,.22-1c.93.21,1.86.44,2.78.7a.5.5,0,0,1-.14,1ZM97.07,7.35H97c-.92-.15-1.85-.28-2.78-.38a.5.5,0,0,1,.11-1c.94.1,1.9.23,2.84.39a.5.5,0,0,1-.08,1Zm-5.64-.62h0c-.93-.05-1.87-.08-2.81-.08a.5.5,0,0,1,0-1c1,0,1.92,0,2.86.08a.5.5,0,0,1,0,1Z"/><path class="cls-5" d="M146,116l-1.36,0a.5.5,0,0,1-.49-.51.49.49,0,0,1,.51-.49c.94,0,1.88,0,2.8,0a.48.48,0,0,1,.52.48.5.5,0,0,1-.48.52Zm-57,0a.5.5,0,0,1,0-1c.93,0,1.88,0,2.81-.09a.5.5,0,1,1,.05,1c-.95.05-1.91.08-2.86.09ZM86.13,116h0c-.95,0-1.91-.11-2.85-.2a.5.5,0,0,1,.09-1c.93.09,1.87.15,2.8.19a.5.5,0,0,1,0,1Zm55.67-.13h0c-.95-.08-1.9-.2-2.84-.34a.5.5,0,1,1,.15-1c.92.14,1.86.25,2.78.33a.5.5,0,0,1,0,1Zm8.49,0a.5.5,0,0,1,0-1c.93-.08,1.87-.2,2.78-.34a.5.5,0,1,1,.15,1c-.94.14-1.89.26-2.84.34Zm-55.67-.12a.5.5,0,0,1-.05-1c.93-.1,1.87-.22,2.79-.36a.5.5,0,0,1,.15,1c-.93.14-1.89.27-2.83.37Zm-14.13-.27h-.07c-.94-.14-1.89-.3-2.82-.48a.5.5,0,1,1,.19-1c.92.18,1.85.34,2.77.47a.5.5,0,0,1-.07,1Zm-40-.44h-.34a.5.5,0,0,1-.5-.5.46.46,0,0,1,.5-.5h.33c.82,0,1.65,0,2.46-.07a.49.49,0,0,1,.53.47.5.5,0,0,1-.47.53C42.21,115,41.36,115,40.52,115Zm95.68,0h-.1c-.93-.2-1.87-.42-2.78-.67a.5.5,0,0,1,.26-1c.9.25,1.82.47,2.73.66a.5.5,0,0,1-.1,1Zm19.69,0a.5.5,0,0,1-.1-1c.91-.19,1.83-.42,2.72-.67a.5.5,0,1,1,.27,1c-.91.25-1.85.48-2.78.68Zm-118.54-.1h0c-1-.07-1.91-.18-2.85-.33a.5.5,0,1,1,.15-1c.92.14,1.85.24,2.78.32a.5.5,0,0,1,0,1Zm62.87,0a.5.5,0,0,1-.1-1c.92-.19,1.84-.4,2.74-.63a.5.5,0,0,1,.25,1c-.92.24-1.85.45-2.79.65Zm-54.38-.19a.5.5,0,0,1-.06-1c.92-.12,1.85-.28,2.76-.46a.5.5,0,1,1,.2,1c-.93.19-1.89.35-2.83.47Zm29.09-.31h-.12c-.92-.23-1.85-.48-2.76-.76a.5.5,0,1,1,.29-1c.89.27,1.81.52,2.71.74a.5.5,0,0,1-.12,1ZM31.76,114h-.11c-.93-.21-1.86-.45-2.78-.73a.5.5,0,1,1,.29-1c.89.27,1.8.51,2.71.71a.5.5,0,0,1-.11,1Zm19.63-.51a.5.5,0,0,1-.13-1c.89-.25,1.79-.54,2.67-.85a.5.5,0,0,1,.34.94c-.9.32-1.82.62-2.73.87Zm54.34,0a.5.5,0,0,1,0-1l2.82-.29a.51.51,0,0,1,.55.45.5.5,0,0,1-.45.55l-2.82.29Zm25,0-.16,0c-.9-.3-1.8-.64-2.68-1a.5.5,0,1,1,.38-.93c.86.35,1.75.68,2.63,1a.5.5,0,0,1-.16,1Zm30.62,0a.5.5,0,0,1-.16-1c.88-.3,1.76-.63,2.62-1a.5.5,0,1,1,.38.93c-.87.36-1.77.7-2.67,1Zm-50-.54a.5.5,0,0,1,0-1l2.82-.29a.51.51,0,0,1,.55.45.5.5,0,0,1-.45.55l-2.82.29ZM69.5,112.7l-.17,0c-.89-.32-1.79-.66-2.67-1a.5.5,0,1,1,.38-.93c.86.36,1.75.69,2.62,1a.5.5,0,0,1-.17,1Zm-43.17-.31a.5.5,0,0,1-.18,0c-.89-.34-1.78-.71-2.65-1.12a.5.5,0,1,1,.42-.91c.84.39,1.71.76,2.58,1.09a.5.5,0,0,1-.18,1Zm90.68-.06a.5.5,0,0,1,0-1l2.82-.29a.51.51,0,0,1,.55.45.5.5,0,0,1-.45.55l-2.82.29Zm5.64-.58a.5.5,0,0,1,0-1l2.82-.29a.52.52,0,0,1,.55.45.5.5,0,0,1-.45.55l-2.82.29Zm-65.93-.16a.5.5,0,0,1-.2-1c.85-.38,1.69-.79,2.52-1.23a.5.5,0,0,1,.47.88c-.84.45-1.71.87-2.58,1.26A.5.5,0,0,1,56.72,111.6Zm109.86-.3a.5.5,0,0,1-.22-1c.83-.4,1.67-.84,2.48-1.29a.5.5,0,0,1,.49.87c-.83.47-1.68.91-2.54,1.32A.5.5,0,0,1,166.58,111.3Zm-102.32-.76a.5.5,0,0,1-.21,0c-.85-.4-1.71-.83-2.56-1.28a.5.5,0,1,1,.47-.88c.83.44,1.67.86,2.51,1.26a.5.5,0,0,1-.21,1ZM21.19,110a.5.5,0,0,1-.24-.06c-.83-.46-1.66-1-2.46-1.48a.5.5,0,1,1,.54-.84c.78.51,1.59,1,2.4,1.44a.5.5,0,0,1-.24.94Zm150.33-1.47a.5.5,0,0,1-.27-.92c.78-.5,1.56-1,2.31-1.58a.5.5,0,1,1,.59.81c-.77.56-1.56,1.1-2.36,1.61A.5.5,0,0,1,171.52,108.54ZM16.44,106.92a.5.5,0,0,1-.3-.1c-.76-.57-1.5-1.18-2.23-1.81a.5.5,0,0,1,.66-.75c.7.61,1.44,1.21,2.17,1.76a.5.5,0,0,1-.3.9Zm159.66-1.71a.5.5,0,0,1-.32-.89c.72-.59,1.43-1.21,2.11-1.84a.5.5,0,1,1,.68.73c-.69.64-1.42,1.28-2.16,1.88A.5.5,0,0,1,176.1,105.21Zm-163.93-2a.5.5,0,0,1-.35-.15c-.67-.67-1.32-1.38-2-2.1a.5.5,0,0,1,.76-.66c.61.71,1.25,1.4,1.9,2.05a.5.5,0,0,1-.35.85Zm168.08-1.84a.5.5,0,0,1-.36-.85c.65-.68,1.28-1.38,1.88-2.08a.5.5,0,1,1,.76.65c-.61.72-1.26,1.44-1.92,2.13A.5.5,0,0,1,180.25,101.36ZM8.47,98.91a.5.5,0,0,1-.4-.2C7.5,98,6.95,97.16,6.43,96.35a.5.5,0,0,1,.84-.54c.51.78,1,1.56,1.6,2.3a.5.5,0,0,1-.4.8ZM183.93,97a.5.5,0,0,1-.4-.8c.56-.74,1.1-1.51,1.62-2.29a.5.5,0,0,1,.83.55c-.53.8-1.08,1.58-1.66,2.34A.5.5,0,0,1,183.93,97ZM5.4,94.15A.5.5,0,0,1,5,93.89c-.46-.84-.89-1.7-1.29-2.56a.5.5,0,0,1,.91-.42c.39.84.81,1.68,1.26,2.5a.5.5,0,0,1-.44.74Zm181.66-1.83a.5.5,0,0,1-.43-.75c.47-.81.92-1.64,1.34-2.47a.5.5,0,1,1,.89.45c-.43.84-.88,1.69-1.37,2.52A.5.5,0,0,1,187.06,92.32ZM3,89a.5.5,0,0,1-.47-.32c-.33-.89-.64-1.81-.91-2.72a.5.5,0,1,1,1-.28c.26.89.56,1.78.89,2.65A.5.5,0,0,1,3,89Zm186.57-1.76a.5.5,0,0,1-.46-.7c.37-.86.72-1.74,1-2.61a.5.5,0,0,1,.94.34c-.32.89-.68,1.79-1.05,2.67A.5.5,0,0,1,189.61,87.25ZM1.43,83.58a.5.5,0,0,1-.49-.39c-.2-.92-.38-1.87-.52-2.82a.5.5,0,0,1,1-.15c.14.92.3,1.85.5,2.75a.5.5,0,0,1-.38.6Zm190.11-1.66-.14,0a.5.5,0,0,1-.34-.62c.26-.89.5-1.8.71-2.71a.5.5,0,1,1,1,.22c-.21.93-.46,1.86-.73,2.77A.5.5,0,0,1,191.54,81.92ZM.61,78a.5.5,0,0,1-.5-.46C0,76.57,0,75.61,0,74.65a.5.5,0,0,1,.5-.5h0a.5.5,0,0,1,.5.5c0,.94,0,1.88.11,2.8A.5.5,0,0,1,.65,78Zm192.2-1.58h-.08a.5.5,0,0,1-.41-.58c.15-.91.28-1.85.38-2.78a.51.51,0,0,1,.55-.44.5.5,0,0,1,.44.55c-.1,1-.23,1.9-.39,2.84A.5.5,0,0,1,192.81,76.4ZM.59,72.32h0a.5.5,0,0,1-.47-.53c.06-1,.16-1.92.29-2.85a.5.5,0,1,1,1,.14c-.13.91-.22,1.85-.29,2.78A.5.5,0,0,1,.59,72.32Zm192.82-1.55h0a.5.5,0,0,1-.48-.52q.05-1.1.05-2.21c0-.2,0-.4,0-.59a.5.5,0,0,1,.49-.51h0a.5.5,0,0,1,.5.49q0,.3,0,.61,0,1.13-.05,2.26A.5.5,0,0,1,193.41,70.77Zm-192-4.06h-.1a.5.5,0,0,1-.38-.59c.2-.93.43-1.87.7-2.78a.5.5,0,1,1,1,.28c-.26.89-.49,1.8-.68,2.71A.5.5,0,0,1,1.37,66.71Zm192-1.61a.5.5,0,0,1-.5-.46c-.07-.93-.16-1.87-.28-2.79a.5.5,0,0,1,.43-.56.51.51,0,0,1,.56.43c.12.94.22,1.89.29,2.85a.5.5,0,0,1-.46.54ZM2.95,61.26a.49.49,0,0,1-.17,0,.5.5,0,0,1-.3-.64c.33-.89.7-1.78,1.09-2.66a.5.5,0,0,1,.91.41c-.38.85-.74,1.72-1.06,2.59A.5.5,0,0,1,2.95,61.26ZM192.6,59.49a.5.5,0,0,1-.49-.41c-.17-.91-.38-1.83-.62-2.73a.5.5,0,1,1,1-.25c.24.93.45,1.87.63,2.79a.5.5,0,0,1-.4.59ZM5.28,56.1a.5.5,0,0,1-.44-.74c.46-.84.94-1.67,1.45-2.48a.5.5,0,1,1,.84.54c-.5.78-1,1.59-1.42,2.41A.5.5,0,0,1,5.28,56.1ZM191.19,54a.5.5,0,0,1-.48-.35c-.29-.89-.6-1.78-.94-2.64a.5.5,0,1,1,.93-.36c.34.88.67,1.79,1,2.7a.5.5,0,0,1-.32.63ZM8.32,51.32a.5.5,0,0,1-.4-.8c.56-.76,1.16-1.52,1.78-2.25a.5.5,0,0,1,.76.65c-.6.71-1.19,1.45-1.74,2.19A.5.5,0,0,1,8.32,51.32Zm180.81-2.59a.5.5,0,0,1-.46-.29c-.38-.83-.8-1.68-1.25-2.51a.5.5,0,0,1,.88-.47c.45.85.88,1.71,1.27,2.56a.5.5,0,0,1-.46.71ZM12,47a.5.5,0,0,1-.36-.85c.67-.68,1.37-1.35,2.08-2a.5.5,0,0,1,.66.75c-.69.62-1.38,1.27-2,1.93A.5.5,0,0,1,12,47Zm174.47-3.27a.5.5,0,0,1-.43-.24c-.48-.79-1-1.58-1.54-2.34a.5.5,0,0,1,.82-.57c.55.78,1.08,1.59,1.57,2.39a.5.5,0,0,1-.43.76ZM16.23,43.25a.5.5,0,0,1-.3-.9c.75-.58,1.54-1.14,2.33-1.67a.5.5,0,1,1,.55.83c-.77.51-1.54,1.06-2.28,1.63A.5.5,0,0,1,16.23,43.25Zm4.72-3.13a.5.5,0,0,1-.25-.94c.83-.47,1.68-.91,2.54-1.32a.5.5,0,0,1,.43.9c-.84.4-1.67.83-2.48,1.29A.49.49,0,0,1,20.95,40.12Zm162.27-1a.5.5,0,0,1-.39-.19c-.58-.73-1.18-1.45-1.8-2.15a.5.5,0,0,1,.75-.67c.63.71,1.25,1.45,1.84,2.19a.5.5,0,0,1-.39.81ZM26.06,37.68a.5.5,0,0,1-.18-1c.89-.35,1.8-.67,2.71-1a.5.5,0,0,1,.3,1c-.88.28-1.77.59-2.64.93A.5.5,0,0,1,26.06,37.68ZM31.46,36a.5.5,0,0,1-.11-1c.93-.22,1.87-.4,2.81-.55a.5.5,0,1,1,.16,1c-.92.15-1.84.33-2.74.54Zm148-1.12a.5.5,0,0,1-.35-.15c-.66-.66-1.35-1.3-2-1.92a.5.5,0,1,1,.66-.75c.71.63,1.42,1.29,2.09,2a.5.5,0,0,1-.35.86Zm-4.25-3.75a.5.5,0,0,1-.31-.11c-.73-.57-1.49-1.13-2.26-1.66a.5.5,0,0,1,.57-.82c.79.54,1.56,1.12,2.31,1.7a.5.5,0,0,1-.31.89Zm-4.66-3.22a.5.5,0,0,1-.26-.07c-.79-.48-1.62-.95-2.44-1.38a.5.5,0,0,1,.47-.89c.84.45,1.68.92,2.49,1.41a.5.5,0,0,1-.26.93Zm-5-2.65a.5.5,0,0,1-.21,0c-.85-.38-1.72-.75-2.59-1.08a.5.5,0,0,1,.36-.93c.89.34,1.78.71,2.65,1.1a.5.5,0,0,1-.21,1Zm-5.3-2-.15,0c-.89-.28-1.8-.54-2.7-.76a.5.5,0,1,1,.24-1c.92.23,1.85.49,2.76.78a.5.5,0,0,1-.15,1Zm-5.5-1.37h-.09c-.91-.17-1.84-.32-2.77-.43a.5.5,0,0,1,.13-1c.94.12,1.9.27,2.83.44a.5.5,0,0,1-.09,1Zm-14.11-.5a.5.5,0,0,1-.06-1c.95-.11,1.91-.19,2.85-.24a.48.48,0,0,1,.53.47.5.5,0,0,1-.47.53c-.93.05-1.87.13-2.79.24Zm8.49-.21h0c-.93-.06-1.87-.09-2.8-.1a.5.5,0,0,1,0-1h0c1,0,1.92,0,2.86.1a.5.5,0,0,1,0,1Z"/><path class="cls-5" d="M48.82,17a.5.5,0,0,1-.35-.86c.69-.66,1.4-1.31,2.11-1.93a.5.5,0,0,1,.66.76c-.7.61-1.4,1.25-2.08,1.89A.5.5,0,0,1,48.82,17Zm4.28-3.71a.5.5,0,0,1-.31-.89c.75-.59,1.52-1.16,2.29-1.71a.5.5,0,1,1,.58.82c-.76.54-1.52,1.1-2.25,1.68A.5.5,0,0,1,53.1,13.32Zm69.18-1.43a.5.5,0,0,1-.29-.09l-.46-.33a.5.5,0,0,1,.58-.82l.47.33a.5.5,0,0,1-.29.91ZM57.72,10a.5.5,0,0,1-.27-.92c.8-.51,1.63-1,2.45-1.48a.5.5,0,1,1,.5.87c-.81.46-1.62,1-2.4,1.45A.5.5,0,0,1,57.72,10ZM119.46,10a.5.5,0,0,1-.27-.08c-.78-.5-1.59-1-2.41-1.45a.5.5,0,0,1,.5-.87c.83.47,1.65,1,2.45,1.48a.5.5,0,0,1-.27.92ZM62.64,7.22a.5.5,0,0,1-.23-.95C63.26,5.85,64.13,5.43,65,5A.5.5,0,0,1,65.4,6c-.85.38-1.7.79-2.54,1.21A.49.49,0,0,1,62.64,7.22Zm51.9-.05a.5.5,0,0,1-.23-.05c-.83-.42-1.68-.83-2.54-1.21a.5.5,0,0,1,.41-.91c.87.39,1.74.8,2.58,1.23a.5.5,0,0,1-.23.95ZM67.81,4.91a.5.5,0,0,1-.18-1c.88-.34,1.78-.67,2.69-1a.5.5,0,1,1,.32.95c-.89.3-1.78.62-2.64,1A.5.5,0,0,1,67.81,4.91Zm41.55,0a.5.5,0,0,1-.18,0c-.87-.34-1.76-.66-2.64-1a.5.5,0,0,1,.31-.95c.9.3,1.81.63,2.69,1a.5.5,0,0,1-.18,1ZM73.18,3.11a.5.5,0,0,1-.13-1c.91-.26,1.84-.49,2.77-.7a.5.5,0,0,1,.22,1c-.91.21-1.83.44-2.72.69Zm30.8,0-.13,0c-.9-.25-1.81-.48-2.73-.69a.5.5,0,1,1,.22-1c.93.21,1.86.44,2.77.7a.5.5,0,0,1-.13,1ZM78.71,1.85a.5.5,0,0,1-.09-1C79.55.69,80.5.55,81.45.43A.51.51,0,0,1,82,.86a.5.5,0,0,1-.43.56c-.93.12-1.86.26-2.78.42Zm19.75,0h-.09c-.92-.16-1.85-.3-2.78-.41a.5.5,0,0,1,.12-1c.94.12,1.89.26,2.83.42a.5.5,0,0,1-.08,1ZM84.33,1.14a.5.5,0,0,1,0-1C85.24.07,86.2,0,87.15,0a.49.49,0,0,1,.51.49.5.5,0,0,1-.49.51c-.93,0-1.88.07-2.81.14Zm8.5,0h0C91.86,1.07,90.92,1,90,1A.5.5,0,0,1,89.5.49.52.52,0,0,1,90,0c1,0,1.91.07,2.86.14a.5.5,0,0,1,0,1Z"/><path class="cls-5" d="M88.61,110.34a.51.51,0,0,1-.54-.5.48.48,0,0,1,.48-.5h0c1,0,1.88,0,2.79-.07a.5.5,0,1,1,.05,1C90.48,110.31,89.54,110.34,88.61,110.34Zm57.38,0q-.94,0-1.88,0a.5.5,0,0,1-.48-.52.47.47,0,0,1,.52-.48c.93,0,1.87.05,2.8,0a.49.49,0,0,1,.51.49.5.5,0,0,1-.49.51Zm-60.27-.08h0c-.94-.05-1.9-.14-2.85-.24a.5.5,0,0,1,.11-1c.93.11,1.87.19,2.8.24a.5.5,0,0,1,0,1Zm64.07-.09a.5.5,0,0,1,0-1c.93-.08,1.86-.2,2.78-.35a.5.5,0,0,1,.16,1c-.94.15-1.9.27-2.85.36Zm-8.49-.09h-.06c-.95-.11-1.9-.25-2.84-.42a.5.5,0,0,1,.18-1c.91.17,1.85.3,2.77.41a.5.5,0,0,1-.05,1Zm-47.09,0a.5.5,0,0,1-.05-1c.93-.1,1.86-.23,2.78-.38a.51.51,0,0,1,.58.41.5.5,0,0,1-.41.57c-.94.15-1.89.28-2.83.38Zm-14.12-.42H80c-.93-.16-1.87-.35-2.81-.56a.5.5,0,1,1,.22-1c.91.21,1.84.39,2.75.55a.5.5,0,0,1-.08,1Zm-39.56-.29a.5.5,0,0,1,0-1c.93,0,1.87,0,2.79-.11a.51.51,0,0,1,.54.46.5.5,0,0,1-.46.54c-.95.08-1.91.12-2.87.12Zm114.85,0a.5.5,0,0,1-.11-1c.9-.21,1.81-.45,2.7-.72a.5.5,0,0,1,.29,1c-.91.28-1.84.53-2.77.74ZM37.7,109.2h0c-1-.08-1.91-.2-2.85-.35a.5.5,0,0,1,.16-1c.91.15,1.85.27,2.77.34a.5.5,0,0,1,0,1Zm62.1-.08a.5.5,0,0,1-.11-1c.91-.2,1.82-.43,2.72-.68a.5.5,0,0,1,.27,1c-.92.26-1.85.49-2.78.69Zm35.93-.06-.12,0c-.92-.23-1.85-.5-2.75-.8a.5.5,0,0,1,.31-1c.89.29,1.79.55,2.69.78a.5.5,0,0,1-.12,1Zm-89.55-.2a.5.5,0,0,1-.08-1c.92-.15,1.84-.34,2.74-.57a.5.5,0,1,1,.24,1c-.92.23-1.87.43-2.82.58Zm28.39-.5-.14,0c-.91-.26-1.83-.55-2.73-.86a.5.5,0,0,1,.33-.95c.88.3,1.78.59,2.68.84a.5.5,0,0,1-.14,1Zm-42.45-.08-.12,0c-.93-.23-1.86-.51-2.76-.82a.5.5,0,1,1,.32-.95c.87.3,1.77.57,2.68.79a.5.5,0,0,1-.12,1Zm73.19-.44a.5.5,0,0,1,0-1l2.82-.29a.51.51,0,0,1,.55.45.5.5,0,0,1-.45.55l-2.82.29Zm55.49-.21a.5.5,0,0,1-.18-1c.87-.33,1.73-.69,2.58-1.08a.5.5,0,0,1,.42.91c-.87.4-1.75.77-2.64,1.11A.5.5,0,0,1,160.8,107.63Zm-109.13-.14a.5.5,0,0,1-.16-1c.88-.3,1.75-.64,2.6-1a.5.5,0,0,1,.4.92c-.87.38-1.78.73-2.68,1Zm78.67-.18a.5.5,0,0,1-.19,0c-.88-.36-1.77-.75-2.62-1.16a.5.5,0,1,1,.44-.9c.83.4,1.69.79,2.56,1.14a.5.5,0,0,1-.19,1Zm-19.39,0a.5.5,0,0,1,0-1l2.82-.29a.51.51,0,0,1,.55.45.5.5,0,0,1-.45.55l-2.82.29Zm5.64-.58a.5.5,0,0,1,0-1l2.82-.29a.51.51,0,0,1,.55.45.5.5,0,0,1-.45.55l-2.82.29Zm-47.38-.17a.5.5,0,0,1-.19,0c-.88-.36-1.76-.74-2.62-1.15a.5.5,0,1,1,.43-.91c.84.4,1.71.78,2.57,1.13a.5.5,0,0,1-.19,1Zm-42.45-.06a.5.5,0,0,1-.2,0c-.87-.38-1.74-.81-2.58-1.26a.5.5,0,1,1,.48-.88c.82.44,1.66.85,2.51,1.23a.5.5,0,0,1-.2,1Zm95.47-.34a.5.5,0,0,1,0-1l2.82-.29a.52.52,0,0,1,.55.45.5.5,0,0,1-.45.55l-2.82.29Zm43.71-.84a.5.5,0,0,1-.24-.94c.82-.44,1.63-.92,2.41-1.42a.5.5,0,1,1,.54.84c-.8.51-1.63,1-2.47,1.46A.5.5,0,0,1,165.94,105.26Zm-109.08,0a.5.5,0,0,1-.24-.94c.82-.44,1.62-.92,2.4-1.43a.5.5,0,0,1,.55.84c-.8.52-1.63,1-2.47,1.47A.49.49,0,0,1,56.86,105.21Zm7.22-1.12a.5.5,0,0,1-.24-.06c-.84-.45-1.68-.93-2.48-1.42a.5.5,0,0,1,.52-.85c.79.48,1.61,1,2.43,1.4a.5.5,0,0,1-.24.94Zm-42.3-.35a.5.5,0,0,1-.27-.08c-.8-.52-1.59-1.08-2.34-1.67a.5.5,0,0,1,.61-.79c.73.57,1.5,1.12,2.27,1.62a.5.5,0,0,1-.27.92Zm148.93-1.53a.5.5,0,0,1-.3-.9c.75-.55,1.49-1.13,2.2-1.73a.5.5,0,0,1,.65.76c-.73.62-1.49,1.21-2.25,1.78A.5.5,0,0,1,170.71,102.22Zm-153.4-1.95a.5.5,0,0,1-.34-.13c-.71-.65-1.39-1.33-2-2a.5.5,0,1,1,.73-.68c.63.68,1.29,1.34,2,2a.5.5,0,0,1-.34.87ZM175,98.57a.5.5,0,0,1-.35-.86c.67-.65,1.32-1.33,1.95-2a.5.5,0,1,1,.74.67c-.64.7-1.31,1.4-2,2.06A.5.5,0,0,1,175,98.57ZM13.46,96.11a.5.5,0,0,1-.39-.19c-.59-.75-1.15-1.54-1.68-2.33a.5.5,0,1,1,.84-.55c.51.77,1.06,1.54,1.63,2.27a.5.5,0,0,1-.39.81Zm165.37-1.75a.5.5,0,0,1-.39-.81c.57-.73,1.13-1.49,1.66-2.26a.5.5,0,0,1,.83.56c-.54.79-1.11,1.57-1.7,2.31A.5.5,0,0,1,178.83,94.36Zm-168.48-3a.5.5,0,0,1-.44-.26c-.46-.84-.89-1.71-1.27-2.58a.5.5,0,1,1,.91-.41c.37.84.79,1.68,1.24,2.5a.5.5,0,0,1-.2.68A.49.49,0,0,1,10.35,91.39ZM182,89.69a.5.5,0,0,1-.43-.75c.47-.8.92-1.63,1.34-2.46a.5.5,0,1,1,.89.45c-.43.86-.89,1.7-1.37,2.52A.5.5,0,0,1,182,89.69Zm-174-3.47a.5.5,0,0,1-.47-.34C7.27,85,7,84,6.76,83.13a.5.5,0,1,1,1-.25c.23.89.5,1.79.81,2.67a.5.5,0,0,1-.31.64Zm176.52-1.6a.5.5,0,0,1-.46-.69c.36-.85.69-1.74,1-2.62a.5.5,0,0,1,.95.32c-.31.91-.65,1.81-1,2.69A.5.5,0,0,1,184.57,84.62ZM6.65,80.73a.5.5,0,0,1-.49-.42c-.16-.95-.28-1.91-.36-2.85a.5.5,0,0,1,1-.08c.08.92.2,1.85.35,2.77a.5.5,0,0,1-.41.58ZM186.4,79.25l-.13,0a.5.5,0,0,1-.36-.61c.24-.89.45-1.81.63-2.73a.5.5,0,1,1,1,.19c-.18.94-.4,1.88-.64,2.79A.5.5,0,0,1,186.4,79.25ZM6.17,75.09a.5.5,0,0,1-.5-.5v-.12c0-.91,0-1.84.11-2.75a.51.51,0,0,1,.54-.46.5.5,0,0,1,.46.54c-.07.89-.11,1.79-.11,2.68v.12A.5.5,0,0,1,6.17,75.09Zm181.31-1.4h-.06a.5.5,0,0,1-.43-.56c.11-.91.2-1.85.25-2.79a.51.51,0,0,1,.53-.47.5.5,0,0,1,.47.53c-.05,1-.14,1.92-.26,2.86A.5.5,0,0,1,187.48,73.69ZM6.61,69.45H6.53a.5.5,0,0,1-.41-.57c.15-.94.35-1.89.58-2.82a.5.5,0,1,1,1,.24c-.22.9-.41,1.82-.56,2.73A.5.5,0,0,1,6.61,69.45ZM187.79,68a.5.5,0,0,1-.5-.49c0-.93-.05-1.87-.13-2.8a.5.5,0,0,1,1-.08c.08.95.12,1.91.13,2.86a.5.5,0,0,1-.49.51ZM8,64l-.16,0a.5.5,0,0,1-.31-.63c.31-.91.66-1.81,1-2.68a.5.5,0,0,1,.92.4c-.37.85-.71,1.72-1,2.6A.5.5,0,0,1,8,64Zm179.36-1.56a.5.5,0,0,1-.49-.43c-.14-.92-.3-1.85-.5-2.75a.5.5,0,0,1,1-.21c.2.93.38,1.88.51,2.82a.5.5,0,0,1-.42.57ZM10.24,58.76A.5.5,0,0,1,9.8,58c.45-.84.95-1.68,1.46-2.47a.5.5,0,0,1,.84.54c-.5.78-1,1.58-1.42,2.4A.5.5,0,0,1,10.24,58.76Zm175.89-1.9a.5.5,0,0,1-.48-.36c-.26-.9-.56-1.79-.87-2.66a.5.5,0,0,1,.94-.34c.33.89.63,1.81.9,2.72a.5.5,0,0,1-.34.62ZM13.32,54a.5.5,0,0,1-.4-.81c.58-.75,1.21-1.49,1.85-2.2a.5.5,0,1,1,.74.67c-.63.69-1.23,1.41-1.8,2.14A.5.5,0,0,1,13.32,54Zm170.86-2.46a.5.5,0,0,1-.46-.3c-.38-.84-.79-1.69-1.23-2.51a.5.5,0,0,1,.88-.47c.45.84.87,1.71,1.25,2.57a.5.5,0,0,1-.25.66A.49.49,0,0,1,184.19,51.55Zm-167-1.72A.5.5,0,0,1,16.8,49c.7-.65,1.43-1.28,2.18-1.87a.5.5,0,0,1,.62.79c-.73.57-1.44,1.19-2.12,1.82A.5.5,0,0,1,17.14,49.83Zm164.4-3.28a.5.5,0,0,1-.42-.24c-.5-.8-1-1.58-1.56-2.33a.5.5,0,1,1,.81-.58c.55.77,1.09,1.57,1.59,2.38a.5.5,0,0,1-.42.76ZM21.59,46.32a.5.5,0,0,1-.28-.92c.8-.53,1.62-1,2.46-1.49a.5.5,0,1,1,.48.88c-.81.45-1.62.93-2.39,1.45A.5.5,0,0,1,21.59,46.32Zm5-2.73a.5.5,0,0,1-.2-1c.87-.39,1.77-.75,2.67-1.06a.5.5,0,0,1,.33.94c-.87.31-1.75.65-2.59,1A.5.5,0,0,1,26.55,43.6Zm151.69-1.65a.5.5,0,0,1-.39-.18c-.59-.72-1.22-1.42-1.85-2.1a.5.5,0,1,1,.73-.69c.65.69,1.29,1.41,1.9,2.15a.5.5,0,0,1-.39.82Zm-3.89-4.12a.5.5,0,0,1-.34-.13c-.69-.63-1.4-1.25-2.12-1.83a.5.5,0,1,1,.63-.78c.74.59,1.47,1.23,2.17,1.87a.5.5,0,0,1-.34.87Zm-4.41-3.56a.5.5,0,0,1-.29-.09c-.76-.53-1.55-1-2.35-1.53a.5.5,0,0,1,.52-.86c.81.49,1.62,1,2.4,1.57a.5.5,0,0,1-.29.91Zm-4.85-2.93a.5.5,0,0,1-.23-.06c-.83-.43-1.68-.83-2.53-1.2a.5.5,0,0,1,.4-.92c.87.38,1.74.79,2.59,1.23a.5.5,0,0,1-.23.95Zm-5.2-2.25-.17,0c-.87-.31-1.77-.59-2.67-.84a.5.5,0,1,1,.27-1c.92.26,1.84.55,2.74.86a.5.5,0,0,1-.17,1Zm-5.46-1.52h-.1c-.91-.19-1.84-.35-2.76-.47a.5.5,0,1,1,.13-1c.94.13,1.9.29,2.83.48a.5.5,0,0,1-.1,1Zm-5.61-.76h0c-.93-.06-1.87-.09-2.8-.09a.5.5,0,0,1,0-1c1,0,1.92,0,2.87.1a.5.5,0,0,1,0,1Z"/><path class="cls-4" d="M131.45,28.85"/><path class="cls-5" d="M51.74,22.08a.5.5,0,0,1-.36-.85c.67-.67,1.36-1.34,2.07-2a.5.5,0,0,1,.67.74c-.69.63-1.37,1.28-2,1.94A.5.5,0,0,1,51.74,22.08Zm4.2-3.81a.5.5,0,0,1-.32-.89c.74-.6,1.5-1.19,2.27-1.74a.5.5,0,1,1,.59.81c-.75.54-1.5,1.12-2.23,1.71A.5.5,0,0,1,55.94,18.27Zm4.58-3.33a.5.5,0,0,1-.27-.92c.8-.52,1.62-1,2.45-1.49a.5.5,0,1,1,.5.87c-.81.46-1.62,1-2.4,1.46A.5.5,0,0,1,60.53,14.94Zm4.92-2.81a.5.5,0,0,1-.22-.95c.85-.42,1.72-.83,2.59-1.21a.5.5,0,1,1,.4.92c-.86.37-1.71.77-2.54,1.19A.5.5,0,0,1,65.45,12.13Zm5.2-2.26a.5.5,0,0,1-.17-1c.89-.33,1.8-.64,2.71-.92a.5.5,0,0,1,.3,1c-.89.28-1.79.58-2.66.9A.5.5,0,0,1,70.64,9.87ZM76.05,8.2a.5.5,0,0,1-.12-1c.92-.23,1.86-.44,2.79-.62a.5.5,0,1,1,.19,1c-.92.18-1.84.38-2.74.61Zm5.56-1.07a.5.5,0,0,1-.07-1c.94-.13,1.9-.23,2.84-.31a.5.5,0,1,1,.08,1c-.93.07-1.87.18-2.79.3Zm5.65-.46a.5.5,0,0,1,0-1l1.35,0a.5.5,0,0,1,0,1l-1.32,0Z"/><path class="cls-4" d="M103,101.87"/><path class="cls-3" d="M146,99.56a31.36,31.36,0,0,1-17.33-5.19l.6-.9-.6.9c-.67-.44-1.33-.91-2-1.4l1.3-1.68c.58.45,1.19.89,1.82,1.3a29.43,29.43,0,1,0-2.4-47.33l-1.17,1-.51-1.42A39.42,39.42,0,0,0,49.5,53l-.17,1.33-1.26-.47a21.67,21.67,0,0,0-7.56-1.36A21.94,21.94,0,1,0,59.13,86.06l.71-1.13.95.94a39.36,39.36,0,0,0,40.68,9.42l.69,2a41.48,41.48,0,0,1-41.95-9A24.08,24.08,0,1,1,47.57,51.47a41.54,41.54,0,0,1,79.67-8.76A31.52,31.52,0,1,1,146,99.56Z"/><path class="cls-2" d="M115.27,82.87A12.37,12.37,0,1,1,127.64,70.5,12.38,12.38,0,0,1,115.27,82.87Zm0-22.61A10.24,10.24,0,1,0,125.52,70.5,10.26,10.26,0,0,0,115.27,60.26Z"/><path class="cls-2" d="M130.34,103.16H100.21V97.4c0-6.85,8.24-12.37,15.06-12.37s15.06,5.52,15.06,12.37Zm-28-2.13h25.87V97.4c0-5.52-7.11-10.24-12.94-10.24s-12.94,4.73-12.94,10.24Z"/><path class="cls-3" d="M35.59,75.66A4.47,4.47,0,1,1,41.44,78,4.47,4.47,0,0,1,35.59,75.66ZM43,72.5a3.61,3.61,0,1,0-1.91,4.73A3.61,3.61,0,0,0,43,72.5Z"/><path class="cls-3" d="M30.72,79.13l-1-2.38a.94.94,0,0,1,.5-1.23l.8-.34a8.55,8.55,0,0,1,0-2.37l-.82-.33a.94.94,0,0,1-.52-1.22l1-2.4a.94.94,0,0,1,1.22-.52l.87.35a8.58,8.58,0,0,1,1.64-1.63L34,66.17a.94.94,0,0,1,.5-1.23l2.38-1a.94.94,0,0,1,1.23.5l.41,1a8.59,8.59,0,0,1,1.92,0l.36-1a.94.94,0,0,1,1.2-.57l2.43.88a.93.93,0,0,1,.53.49,1,1,0,0,1,0,.72l-.38,1a8.55,8.55,0,0,1,1.81,1.72l1-.44a.94.94,0,0,1,1.23.5l1,2.38a.94.94,0,0,1-.5,1.23l-1,.44a8.57,8.57,0,0,1,0,2.18l1,.42a1,1,0,0,1,.52,1.22l-1,2.4a.94.94,0,0,1-1.22.52l-1-.4A8.6,8.6,0,0,1,45,80.7l.41,1a.94.94,0,0,1-.5,1.23l-2.38,1a.94.94,0,0,1-1.23-.5l-.38-.89a8.6,8.6,0,0,1-2,.08l-.32.89a.94.94,0,0,1-1.2.56L35,83.16a.94.94,0,0,1-.56-1.2l.3-.84a8.54,8.54,0,0,1-2-1.83l-.8.34A.94.94,0,0,1,30.72,79.13ZM32,72.27l-.06.34a7.72,7.72,0,0,0,0,2.75l.06.34-1.43.61a.08.08,0,0,0,0,.11l1,2.38a.08.08,0,0,0,.11,0L33,78.23l.2.28a7.71,7.71,0,0,0,2.22,2.07l.3.18-.54,1.49a.08.08,0,0,0,0,.11l2.43.88a.09.09,0,0,0,.11,0l.55-1.52.34,0a7.75,7.75,0,0,0,2.4-.09l.34-.07.65,1.53a.08.08,0,0,0,.11,0l2.38-1a.08.08,0,0,0,0-.11L44,80.42l.27-.2A7.75,7.75,0,0,0,46,78.32l.19-.29,1.63.66a.09.09,0,0,0,.11,0l1-2.4a.09.09,0,0,0,0-.11l-1.66-.67.05-.34a7.72,7.72,0,0,0,0-2.58l-.06-.34,1.66-.7a.08.08,0,0,0,0-.11l-1-2.38a.08.08,0,0,0-.11,0l-1.66.71-.2-.28a7.72,7.72,0,0,0-2.07-2l-.28-.19.61-1.68a.09.09,0,0,0,0-.11l-2.43-.88a.08.08,0,0,0-.11,0L41,66.29l-.34,0a7.76,7.76,0,0,0-2.34,0l-.33.06-.67-1.57a.08.08,0,0,0-.11,0l-2.38,1a.08.08,0,0,0,0,.11l.65,1.53-.29.2a7.74,7.74,0,0,0-1.91,1.9l-.2.28-1.5-.6a.09.09,0,0,0-.11,0l-1,2.4a.08.08,0,0,0,0,.11Z"/><path class="cls-3" d="M145.29,69.42a5.08,5.08,0,1,1,6.66,2.69A5.08,5.08,0,0,1,145.29,69.42Zm8.45-3.59a4.1,4.1,0,1,0-2.17,5.38A4.11,4.11,0,0,0,153.74,65.83Z"/><path class="cls-3" d="M139.76,73.36l-1.15-2.7a1.07,1.07,0,0,1,.57-1.4l.91-.39a9.72,9.72,0,0,1,0-2.69l-.94-.38a1.07,1.07,0,0,1-.59-1.39l1.1-2.72a1.07,1.07,0,0,1,1.39-.59l1,.4a9.75,9.75,0,0,1,1.86-1.85l-.43-1a1.07,1.07,0,0,1,.57-1.4l2.7-1.15a1.07,1.07,0,0,1,1.4.57l.46,1.09a9.76,9.76,0,0,1,2.18,0l.41-1.14a1.07,1.07,0,0,1,1.37-.64l2.76,1a1.06,1.06,0,0,1,.6.55,1.08,1.08,0,0,1,0,.82l-.43,1.19a9.72,9.72,0,0,1,2.06,2l1.18-.5a1.07,1.07,0,0,1,1.4.57l1.15,2.7a1.07,1.07,0,0,1-.57,1.4l-1.18.5a9.74,9.74,0,0,1,0,2.48l1.18.48a1.1,1.1,0,0,1,.59,1.39l-1.1,2.72a1.07,1.07,0,0,1-1.39.59l-1.13-.46A9.78,9.78,0,0,1,156,75.15l.46,1.09a1.07,1.07,0,0,1-.57,1.4l-2.7,1.15a1.07,1.07,0,0,1-1.4-.57l-.43-1a9.78,9.78,0,0,1-2.25.09l-.37,1a1.07,1.07,0,0,1-1.37.64l-2.76-1a1.07,1.07,0,0,1-.64-1.37l.35-1a9.71,9.71,0,0,1-2.24-2.08l-.91.39A1.07,1.07,0,0,1,139.76,73.36Zm1.42-7.79-.07.39a8.77,8.77,0,0,0,0,3.12l.07.38-1.62.69a.1.1,0,0,0,0,.12l1.15,2.7a.1.1,0,0,0,.12,0l1.62-.69.23.32A8.77,8.77,0,0,0,145.16,75l.34.21-.61,1.69a.09.09,0,0,0,.06.12l2.76,1a.11.11,0,0,0,.12-.06l.62-1.73.38,0a8.81,8.81,0,0,0,2.73-.11l.39-.08.74,1.74a.09.09,0,0,0,.12,0l2.7-1.15a.1.1,0,0,0,0-.12l-.76-1.79.31-.23a8.81,8.81,0,0,0,2.06-2.16l.22-.33,1.85.75a.1.1,0,0,0,.12-.05l1.1-2.72a.11.11,0,0,0-.05-.12l-1.89-.76.06-.38a8.77,8.77,0,0,0,0-2.93l-.07-.38,1.89-.8a.1.1,0,0,0,0-.12l-1.15-2.7a.1.1,0,0,0-.12,0l-1.89.8-.23-.32a8.77,8.77,0,0,0-2.35-2.24l-.32-.21L155,58a.11.11,0,0,0-.06-.12l-2.76-1a.1.1,0,0,0-.12.06l-.68,1.88-.39-.05a8.82,8.82,0,0,0-2.66,0l-.38.06L147.25,57a.1.1,0,0,0-.12,0l-2.7,1.15a.09.09,0,0,0,0,.12l.74,1.74-.33.23a8.8,8.8,0,0,0-2.17,2.16l-.22.31-1.7-.69a.11.11,0,0,0-.12.05l-1.1,2.72a.1.1,0,0,0,.05.12Z"/><path class="cls-3" d="M75.6,52.71a7.13,7.13,0,1,1,9.35,3.78A7.14,7.14,0,0,1,75.6,52.71Zm11.87-5a5.76,5.76,0,1,0-3.05,7.55A5.77,5.77,0,0,0,87.47,47.67Z"/><path class="cls-3" d="M67.83,58.24l-1.61-3.8a1.5,1.5,0,0,1,.8-2l1.28-.54a13.66,13.66,0,0,1,0-3.78L67,47.63a1.5,1.5,0,0,1-.83-2l1.55-3.82a1.5,1.5,0,0,1,2-.83l1.39.56A13.7,13.7,0,0,1,73.65,39L73,37.56a1.5,1.5,0,0,1,.8-2L77.64,34a1.5,1.5,0,0,1,2,.79l.65,1.52a13.71,13.71,0,0,1,3.06,0l.58-1.6a1.5,1.5,0,0,1,1.92-.9l3.88,1.4a1.49,1.49,0,0,1,.85.77,1.52,1.52,0,0,1,.05,1.15L90,38.75a13.65,13.65,0,0,1,2.89,2.75l1.65-.7a1.5,1.5,0,0,1,2,.79l1.61,3.8a1.5,1.5,0,0,1-.8,2l-1.65.7a13.67,13.67,0,0,1,0,3.48l1.65.67a1.54,1.54,0,0,1,.83,2L96.64,58a1.5,1.5,0,0,1-2,.83l-1.59-.64a13.74,13.74,0,0,1-2.46,2.58l.65,1.52a1.5,1.5,0,0,1-.8,2l-3.8,1.61a1.5,1.5,0,0,1-2-.79l-.61-1.43a13.73,13.73,0,0,1-3.16.12l-.51,1.42a1.5,1.5,0,0,1-1.92.9l-3.88-1.4a1.5,1.5,0,0,1-.9-1.92l.49-1.34a13.63,13.63,0,0,1-3.14-2.92L69.8,59A1.5,1.5,0,0,1,67.83,58.24Zm2-10.94-.1.55a12.32,12.32,0,0,0,0,4.39l.1.54-2.28,1a.14.14,0,0,0-.07.17l1.61,3.8a.14.14,0,0,0,.17.07l2.28-1,.32.45a12.31,12.31,0,0,0,3.55,3.3l.47.29L75,63.23a.13.13,0,0,0,.08.17L79,64.8a.15.15,0,0,0,.17-.08L80,62.29l.54.06a12.38,12.38,0,0,0,3.83-.15l.55-.11,1,2.44a.13.13,0,0,0,.17.07L90,63a.14.14,0,0,0,.07-.17L89,60.31l.43-.32a12.37,12.37,0,0,0,2.89-3l.31-.46,2.6,1.05a.14.14,0,0,0,.17-.07l1.55-3.82a.15.15,0,0,0-.07-.17l-2.65-1.07.08-.54a12.32,12.32,0,0,0-.05-4.11l-.1-.54,2.65-1.13a.14.14,0,0,0,.07-.17l-1.61-3.8a.14.14,0,0,0-.17-.07l-2.65,1.13-.32-.45a12.32,12.32,0,0,0-3.3-3.15l-.45-.3,1-2.68a.15.15,0,0,0-.08-.17L85.35,35a.14.14,0,0,0-.17.08l-1,2.64-.55-.08a12.38,12.38,0,0,0-3.73,0l-.53.09-1.06-2.51a.14.14,0,0,0-.17-.07l-3.8,1.61a.13.13,0,0,0-.07.17l1,2.44-.46.32a12.35,12.35,0,0,0-3.05,3l-.31.44-2.39-1a.15.15,0,0,0-.17.07l-1.55,3.83a.13.13,0,0,0,.07.17Z"/><path class="cls-5" d="M89.38,104.66a.5.5,0,0,1,0-1c.93,0,1.88-.06,2.8-.13a.51.51,0,0,1,.54.46.5.5,0,0,1-.46.54c-.94.07-1.91.12-2.86.13Zm-2.83,0h0c-.95,0-1.91-.12-2.86-.22a.5.5,0,0,1,.11-1c.93.1,1.87.17,2.79.22a.5.5,0,0,1,0,1Zm8.48-.4a.5.5,0,0,1-.07-1c.92-.13,1.85-.29,2.76-.47a.5.5,0,0,1,.2,1c-.93.19-1.88.35-2.82.48ZM80.92,104h-.09c-.94-.16-1.88-.36-2.81-.57a.5.5,0,1,1,.23-1c.91.21,1.83.4,2.75.56a.5.5,0,0,1-.08,1Zm-41.08-.36h0c-1,0-1.93-.09-2.87-.21a.5.5,0,0,1-.44-.56.51.51,0,0,1,.56-.44c.92.11,1.85.18,2.78.2a.5.5,0,0,1,0,1Zm2.83-.07a.5.5,0,0,1,0-1c.93-.07,1.86-.18,2.76-.34a.51.51,0,0,1,.58.41.5.5,0,0,1-.41.58c-.94.16-1.9.28-2.86.35Zm57.92-.47a.5.5,0,0,1-.13-1c.8-.22,1.62-.46,2.41-.72a.5.5,0,1,1,.31,1c-.81.27-1.64.51-2.46.73ZM34.22,103h-.11c-.93-.21-1.87-.47-2.78-.77a.5.5,0,0,1,.32-.95c.88.29,1.78.54,2.68.74a.5.5,0,0,1-.11,1Zm41.19-.25-.14,0c-.91-.27-1.82-.58-2.72-.91a.5.5,0,0,1,.35-.94c.88.32,1.77.63,2.66.89a.5.5,0,0,1-.14,1Zm-27.16-.1a.5.5,0,0,1-.13-1c.89-.25,1.78-.54,2.64-.88a.5.5,0,0,1,.36.93c-.89.35-1.81.65-2.74.91Zm-19.4-1.43a.5.5,0,0,1-.2,0c-.87-.39-1.74-.83-2.57-1.31a.5.5,0,1,1,.5-.87c.8.46,1.64.88,2.48,1.26a.5.5,0,0,1-.2,1Zm41.24-.44a.5.5,0,0,1-.2,0c-.87-.39-1.74-.8-2.58-1.23a.5.5,0,0,1,.46-.89c.82.42,1.68.83,2.53,1.21a.5.5,0,0,1-.2,1Zm-16.57-.18a.5.5,0,0,1-.23-.95c.82-.42,1.64-.89,2.41-1.38a.5.5,0,0,1,.54.84c-.81.52-1.65,1-2.5,1.43A.49.49,0,0,1,53.52,100.55ZM23.94,98.36a.5.5,0,0,1-.29-.09c-.78-.56-1.54-1.16-2.26-1.78a.5.5,0,0,1,.66-.75c.7.61,1.43,1.19,2.19,1.72a.5.5,0,0,1-.29.91Zm41.12-.22a.5.5,0,0,1-.26-.07c-.82-.49-1.63-1-2.42-1.54a.5.5,0,1,1,.56-.83c.77.52,1.57,1,2.37,1.51a.5.5,0,0,1-.26.93Zm-6.77-.64A.5.5,0,0,1,58,96.6c.72-.57,1.43-1.19,2.09-1.84a.5.5,0,0,1,.7.72c-.69.67-1.42,1.31-2.17,1.9A.5.5,0,0,1,58.28,97.49ZM19.67,94.64a.5.5,0,0,1-.36-.16c-.66-.7-1.29-1.44-1.87-2.19a.5.5,0,1,1,.79-.61c.56.73,1.17,1.44,1.81,2.12a.5.5,0,0,1-.36.84ZM16.2,90.17a.5.5,0,0,1-.42-.23c-.51-.81-1-1.66-1.41-2.51a.5.5,0,0,1,.9-.45c.41.82.87,1.64,1.36,2.43a.5.5,0,0,1-.42.77ZM13.68,85.1a.5.5,0,0,1-.47-.32c-.34-.9-.64-1.82-.89-2.74a.5.5,0,0,1,1-.26c.24.89.53,1.78.85,2.65a.5.5,0,0,1-.47.68Zm-1.47-5.46a.5.5,0,0,1-.49-.42,28.59,28.59,0,0,1-.33-2.86.5.5,0,0,1,.47-.53h0a.5.5,0,0,1,.5.47c.06.93.17,1.86.32,2.76a.5.5,0,0,1-.41.58ZM11.86,74h0a.5.5,0,0,1-.48-.52c0-1,.11-1.93.24-2.87a.5.5,0,0,1,1,.13c-.12.91-.2,1.85-.23,2.77A.5.5,0,0,1,11.86,74Zm.75-5.61h-.12a.5.5,0,0,1-.37-.6c.22-.94.49-1.87.8-2.77a.5.5,0,1,1,.95.33c-.3.87-.56,1.77-.77,2.67A.5.5,0,0,1,12.6,68.38ZM14.44,63a.5.5,0,0,1-.46-.71c.4-.87.85-1.73,1.33-2.56a.5.5,0,1,1,.86.51c-.47.8-.9,1.63-1.29,2.47A.5.5,0,0,1,14.44,63Zm2.86-4.88a.5.5,0,0,1-.41-.79c.56-.77,1.17-1.53,1.81-2.25a.5.5,0,0,1,.75.66c-.62.69-1.2,1.42-1.74,2.17A.5.5,0,0,1,17.3,58.15Zm3.76-4.23a.5.5,0,0,1-.34-.87c.71-.65,1.45-1.27,2.21-1.85a.5.5,0,0,1,.6.8c-.74.56-1.45,1.16-2.13,1.79A.5.5,0,0,1,21.06,53.92Zm4.51-3.42a.5.5,0,0,1-.26-.93c.81-.5,1.67-1,2.53-1.38a.5.5,0,0,1,.44.9c-.83.4-1.66.85-2.44,1.34A.5.5,0,0,1,25.57,50.5Z"/><path class="cls-5" d="M47.52,37.47a.5.5,0,0,1-.45-.73c.44-.85.9-1.69,1.39-2.51a.5.5,0,1,1,.86.51c-.47.8-.93,1.62-1.36,2.45A.5.5,0,0,1,47.52,37.47Zm2.89-4.87a.5.5,0,0,1-.41-.78c.54-.79,1.1-1.57,1.68-2.32a.5.5,0,0,1,.79.61c-.57.73-1.12,1.5-1.65,2.27A.5.5,0,0,1,50.41,32.6Zm3.46-4.48a.5.5,0,0,1-.38-.83c.62-.71,1.28-1.42,2-2.1a.5.5,0,0,1,.71.7c-.66.66-1.3,1.35-1.91,2.05A.5.5,0,0,1,53.88,28.12Zm68-1.57a.5.5,0,0,1-.36-.15c-.65-.67-1.32-1.33-2-2a.5.5,0,0,1,.68-.74c.7.64,1.39,1.32,2,2a.5.5,0,0,1-.36.85Zm-64-2.46a.5.5,0,0,1-.33-.87c.71-.63,1.45-1.25,2.19-1.84a.5.5,0,0,1,.62.78c-.73.58-1.45,1.18-2.15,1.8A.5.5,0,0,1,57.86,24.09Zm59.86-1.38a.5.5,0,0,1-.32-.11c-.72-.59-1.47-1.16-2.23-1.7a.5.5,0,0,1,.58-.81c.77.55,1.54,1.14,2.28,1.74a.5.5,0,0,1-.32.89ZM62.31,20.58a.5.5,0,0,1-.29-.91c.78-.54,1.59-1.07,2.4-1.56a.5.5,0,1,1,.52.85c-.79.48-1.58,1-2.35,1.53A.5.5,0,0,1,62.31,20.58Zm50.81-1.17a.5.5,0,0,1-.27-.08c-.79-.49-1.6-1-2.42-1.42a.5.5,0,1,1,.48-.88c.83.46,1.67.94,2.47,1.45a.5.5,0,0,1-.27.92Zm-46-1.78a.5.5,0,0,1-.23-.94c.84-.44,1.7-.87,2.57-1.26a.5.5,0,1,1,.41.91c-.85.38-1.7.8-2.52,1.23A.5.5,0,0,1,67.15,17.63Zm41-.94a.5.5,0,0,1-.21,0c-.84-.4-1.71-.77-2.57-1.11a.5.5,0,0,1,.37-.93c.88.35,1.77.73,2.63,1.14a.5.5,0,0,1-.21,1ZM72.31,15.3a.5.5,0,0,1-.18-1c.89-.34,1.8-.65,2.71-.93a.5.5,0,0,1,.3,1c-.89.28-1.78.58-2.65.91A.5.5,0,0,1,72.31,15.3Zm30.57-.7-.16,0c-.88-.29-1.79-.56-2.69-.79a.5.5,0,1,1,.25-1c.92.24,1.84.51,2.75.81a.5.5,0,0,1-.16,1Zm-25.16-1a.5.5,0,0,1-.12-1c.92-.23,1.87-.42,2.8-.59a.5.5,0,0,1,.18,1c-.92.16-1.84.36-2.74.58Zm19.68-.45h-.1c-.91-.18-1.84-.33-2.76-.45a.5.5,0,1,1,.13-1c.95.13,1.9.28,2.83.46a.5.5,0,0,1-.09,1Zm-14.1-.55a.5.5,0,0,1-.06-1c.94-.11,1.9-.19,2.85-.24a.5.5,0,1,1,.05,1c-.93,0-1.87.13-2.79.24Zm8.49-.19h0c-.93-.06-1.87-.1-2.8-.11a.5.5,0,0,1,0-1h0c1,0,1.91,0,2.86.11a.5.5,0,0,1,0,1Z"/><path class="cls-5" d="M146,104.67l-2.53-.42a.5.5,0,0,1,.17-1l2.45.41h.27a.47.47,0,0,1,.5.5.5.5,0,0,1-.5.5Zm3.18-.14a.5.5,0,0,1,0-1c.93-.08,1.86-.2,2.77-.35a.5.5,0,0,1,.17,1c-.94.16-1.9.28-2.85.36Zm-8.42-.74h-.08l-2.79-.47a.5.5,0,0,1,.17-1l2.79.47a.5.5,0,0,1-.08,1Zm14-.19a.5.5,0,0,1-.12-1c.9-.23,1.8-.49,2.68-.78a.5.5,0,1,1,.32.95c-.9.3-1.83.57-2.76.81Zm-19.6-.75h-.08l-2.79-.47a.5.5,0,0,1-.41-.58.51.51,0,0,1,.58-.41l2.79.47a.5.5,0,0,1-.08,1Zm25-1.05a.5.5,0,0,1-.2-1c.85-.36,1.7-.77,2.53-1.2a.5.5,0,0,1,.46.89c-.85.44-1.72.86-2.6,1.23A.5.5,0,0,1,160.12,101.79Zm5-2.63a.5.5,0,0,1-.27-.92c.78-.49,1.56-1,2.31-1.58a.5.5,0,0,1,.6.8c-.77.57-1.56,1.11-2.37,1.62A.5.5,0,0,1,165.14,99.16Zm4.55-3.38a.5.5,0,0,1-.33-.88c.7-.61,1.38-1.25,2-1.92a.5.5,0,1,1,.71.7c-.67.68-1.37,1.34-2.09,2A.5.5,0,0,1,169.69,95.79Zm4-4a.5.5,0,0,1-.38-.82c.6-.71,1.17-1.45,1.71-2.21a.5.5,0,0,1,.81.58c-.56.78-1.15,1.54-1.76,2.27A.5.5,0,0,1,173.66,91.75Zm3.29-4.6a.49.49,0,0,1-.26-.07.5.5,0,0,1-.17-.69c.48-.8.93-1.62,1.35-2.45a.5.5,0,0,1,.89.45c-.43.85-.89,1.7-1.38,2.51A.5.5,0,0,1,177,87.14Zm2.53-5.06a.5.5,0,0,1-.46-.69c.35-.85.67-1.74.95-2.63a.5.5,0,1,1,1,.3c-.29.91-.62,1.82-1,2.7A.5.5,0,0,1,179.49,82.08Zm1.71-5.39h-.11a.5.5,0,0,1-.37-.6c.21-.9.38-1.82.52-2.74a.5.5,0,0,1,1,.15c-.14.95-.32,1.9-.54,2.82A.5.5,0,0,1,181.19,76.69Zm.84-5.6h0a.5.5,0,0,1-.46-.53c.06-.83.09-1.68.09-2.53v-.27a.5.5,0,0,1,.49-.51.51.51,0,0,1,.51.49V68c0,.86,0,1.74-.09,2.6A.5.5,0,0,1,182,71.09Zm0-5.66a.5.5,0,0,1-.5-.46c-.08-.93-.2-1.87-.35-2.77a.5.5,0,1,1,1-.16c.16.93.28,1.89.36,2.85a.5.5,0,0,1-.46.54Zm-.92-5.59a.5.5,0,0,1-.49-.38c-.22-.9-.49-1.8-.78-2.68a.5.5,0,1,1,.95-.32c.3.91.57,1.83.8,2.76a.5.5,0,0,1-.37.61Zm-1.79-5.37a.5.5,0,0,1-.46-.31c-.36-.85-.76-1.7-1.19-2.53a.5.5,0,0,1,.89-.46c.44.85.85,1.73,1.22,2.6a.5.5,0,0,1-.46.7Zm-2.61-5a.5.5,0,0,1-.42-.24c-.49-.78-1-1.56-1.57-2.31a.5.5,0,1,1,.8-.59c.57.77,1.11,1.57,1.62,2.38a.5.5,0,0,1-.42.77Zm-3.37-4.56a.5.5,0,0,1-.38-.17c-.61-.7-1.25-1.38-1.91-2a.5.5,0,0,1,.7-.71c.68.67,1.34,1.38,2,2.1a.5.5,0,0,1-.38.83Zm-4-4a.5.5,0,0,1-.32-.12c-.71-.6-1.45-1.18-2.2-1.72a.5.5,0,1,1,.58-.81c.77.56,1.54,1.15,2.26,1.77a.5.5,0,0,1-.32.88Zm-4.6-3.3a.5.5,0,0,1-.26-.07c-.79-.48-1.61-.94-2.44-1.35a.5.5,0,0,1,.45-.89c.85.43,1.7.9,2.51,1.39a.5.5,0,0,1-.26.93Zm-5.05-2.55a.5.5,0,0,1-.19,0c-.86-.35-1.74-.67-2.62-1a.5.5,0,0,1,.3-1c.91.29,1.81.62,2.7,1a.5.5,0,0,1-.19,1Zm-5.39-1.72h-.11c-.9-.21-1.83-.39-2.74-.53a.5.5,0,0,1,.15-1c.94.14,1.89.33,2.82.54a.5.5,0,0,1-.11,1Zm-5.6-.85h0c-.86-.06-1.74-.09-2.61-.09a.5.5,0,0,1,0-1c.89,0,1.8,0,2.69.1a.5.5,0,0,1,0,1Z"/></g></g></svg>